<svg width="20" height="15" viewBox="0 0 20 15" fill="none" xmlns="http://www.w3.org/2000/svg">
<path opacity="0.3" d="M19.9797 1.95697C19.2667 2.24261 18.5104 2.43014 17.7361 2.51332C18.5414 2.07545 19.161 1.38347 19.4525 0.557738C18.6857 0.969423 17.8468 1.25947 16.972 1.41534C16.2337 0.701951 15.2012 0.297869 14.121 0.299566C11.9645 0.299566 10.2143 1.88157 10.2143 3.83309C10.2143 4.11038 10.2488 4.38064 10.3164 4.63871C7.06933 4.4911 4.19158 3.08484 2.2645 0.94648C1.92802 1.46777 1.73608 2.07545 1.73608 2.72324C1.73608 3.94871 2.42546 5.03053 3.47342 5.66436C2.85296 5.64716 2.2461 5.49557 1.70377 5.22231V5.26738C1.70377 6.97907 3.05045 8.40743 4.83662 8.73275C4.26135 8.87368 3.65819 8.89435 3.0728 8.7932C3.57012 10.1974 5.01324 11.2189 6.72191 11.2485C5.3852 12.1948 3.70107 12.7609 1.87044 12.7609C1.55915 12.7605 1.24815 12.744 0.938965 12.7114C2.66756 13.7138 4.72134 14.2996 6.9272 14.2996C14.1125 14.2996 18.041 8.91366 18.041 4.24304C18.041 4.09027 18.041 3.9375 18.0288 3.78583C18.7932 3.28543 19.4534 2.6662 19.9785 1.95697H19.9797Z" fill="white"/>
</svg>
